# xmcd
#
# Track frame offsets: 
#        182
#        14349
#        26159
#        46157
#        56679
#        67587
#        85667
#        100572
#        115067
#        131237
#
# Disc length: 1904 seconds
#
# Revision: 3
# Processed by: cddbd v1.5.2PL0 Copyright (c) Steve Scherf et al.
# Submitted via: ExactAudioCopy v1.0b3
#
DISCID=75076e0a
DTITLE=Hank Williams Jr. - Family Tradition [2010]
DYEAR=1979
DGENRE=
TTITLE0=To Love Somebody
TTITLE1=Old Flame, New Fire
TTITLE2=Always Loving You
TTITLE3=We Can Work It All Out
TTITLE4=I Fought The Law
TTITLE5=Family Tradition
TTITLE6=Only Daddy That'll Walk The Line
TTITLE7=Paying On Time
TTITLE8=I've Got Rights
TTITLE9=I Just Ain't Been Able
EXTD=
EXTT0=
EXTT1=
EXTT2=
EXTT3=
EXTT4=
EXTT5=
EXTT6=
EXTT7=
EXTT8=
EXTT9=
PLAYORDER=
